<svg id="svg" version="1.1" xmlns="http://www.w3.org/2000/svg" xmlns:xlink="http://www.w3.org/1999/xlink" width="400" height="400" viewBox="0, 0, 400,400"><g id="svgg"><path id="path0" d="M174.583 128.283 C 165.358 130.700,161.412 141.561,166.817 149.660 C 167.138 150.141,178.539 161.687,192.154 175.317 L 216.907 200.100 192.505 224.491 C 164.826 252.157,165.892 250.985,164.792 254.947 C 161.519 266.730,174.514 276.571,185.228 270.422 C 187.207 269.287,247.210 209.272,248.392 207.245 C 250.825 203.078,250.997 197.960,248.852 193.586 C 248.158 192.169,247.277 191.268,217.120 161.107 L 186.103 130.086 184.451 129.297 C 181.395 127.838,177.722 127.460,174.583 128.283 " stroke="none" fill="#040404" fill-rule="evenodd"></path><path id="path1" d="M189.893 1.762 C 84.226 7.343,1.557 94.359,1.557 200.000 C 1.557 309.578,90.422 398.443,200.000 398.443 C 309.578 398.443,398.443 309.578,398.443 200.000 C 398.443 86.580,302.931 -4.209,189.893 1.762 M181.523 128.200 C 182.225 128.369,183.542 128.863,184.451 129.297 L 186.103 130.086 217.120 161.107 C 247.277 191.268,248.158 192.169,248.852 193.586 C 250.997 197.960,250.825 203.078,248.392 207.245 C 247.210 209.272,187.207 269.287,185.228 270.422 C 174.514 276.571,161.519 266.730,164.792 254.947 C 165.892 250.985,164.826 252.157,192.505 224.491 L 216.907 200.100 192.154 175.317 C 178.539 161.687,167.138 150.141,166.817 149.660 C 159.688 138.977,169.128 125.202,181.523 128.200 " stroke="none" fill="#fcfcfc" fill-rule="evenodd"></path></g></svg>